<?xml version="1.0" standalone="no"?>
<!DOCTYPE svg PUBLIC "-//W3C//DTD SVG 20010904//EN"
 "http://www.w3.org/TR/2001/REC-SVG-20010904/DTD/svg10.dtd">
<svg version="1.0" xmlns="http://www.w3.org/2000/svg"
 width="700.000000pt" height="700.000000pt" viewBox="0 0 700.000000 700.000000"
 preserveAspectRatio="xMidYMid meet">
<metadata>
Created by potrace 1.14, written by Peter Selinger 2001-2017
</metadata>
<g transform="translate(0.000000,700.000000) scale(0.100000,-0.100000)"
fill="#000000" stroke="none">
<path d="M3657 6984 c-1 -1 -69 -4 -152 -8 -169 -7 -212 -11 -340 -31 -441
-71 -721 -187 -1319 -548 -182 -109 -362 -217 -401 -239 -38 -22 -83 -48 -100
-58 -419 -241 -698 -502 -845 -791 -34 -67 -110 -267 -109 -287 0 -6 -4 -29
-16 -92 -25 -130 -26 -533 -1 -666 2 -11 7 -46 10 -79 4 -33 13 -105 21 -160
7 -55 16 -122 20 -150 3 -27 8 -61 10 -75 35 -216 36 -226 15 -330 -23 -112
-51 -182 -180 -445 -145 -294 -191 -410 -225 -555 -81 -359 6 -707 258 -1030
177 -226 310 -324 522 -385 161 -47 407 -53 655 -15 36 5 83 12 105 15 22 3
78 12 125 20 401 68 579 76 715 30 27 -10 169 -85 315 -168 430 -243 498 -280
701 -379 503 -246 1122 -450 1529 -503 30 -4 64 -9 75 -11 132 -26 600 -25
695 1 8 2 31 7 50 10 65 11 223 56 299 87 187 74 335 173 492 328 219 218 323
424 385 760 10 57 13 399 4 475 -16 131 -22 170 -36 237 -7 37 -16 82 -19 100
-10 53 -54 238 -71 298 -23 78 -33 101 -90 220 -78 161 -152 278 -447 712
-220 322 -337 534 -391 707 -64 204 -52 301 88 709 91 265 116 374 121 537 3
114 -28 306 -64 390 -108 251 -193 369 -455 631 -198 197 -349 319 -536 432
-47 29 -219 115 -285 142 -94 40 -310 102 -400 115 -22 4 -47 8 -55 10 -8 2
-40 7 -70 10 -30 3 -66 8 -80 10 -65 10 -514 26 -523 19z m458 -457 c11 -3 43
-8 70 -11 332 -43 591 -155 870 -374 97 -77 380 -362 443 -447 149 -201 194
-383 150 -599 -10 -50 -52 -190 -93 -311 -81 -240 -111 -343 -123 -420 -9 -64
-9 -288 0 -340 20 -111 40 -177 94 -309 94 -229 194 -393 589 -971 90 -132
183 -287 232 -391 37 -79 90 -251 108 -349 2 -16 7 -41 10 -55 16 -77 36 -191
41 -235 3 -27 7 -66 9 -85 13 -109 5 -295 -16 -395 -40 -189 -112 -323 -246
-458 -202 -204 -472 -306 -815 -309 -121 -2 -263 6 -328 16 -14 2 -47 7 -75
11 -309 41 -781 187 -1200 373 -243 107 -356 166 -830 435 -165 94 -325 181
-355 195 -62 27 -179 59 -255 69 -99 14 -402 7 -490 -11 -11 -2 -45 -7 -75
-11 -30 -4 -64 -9 -75 -11 -11 -3 -36 -6 -55 -9 -19 -3 -46 -7 -60 -10 -14 -3
-56 -10 -95 -15 -38 -6 -77 -12 -85 -15 -8 -2 -42 -7 -75 -10 -289 -32 -447
-15 -547 57 -125 91 -288 325 -334 478 -46 156 -38 312 27 490 27 73 35 91
157 339 158 324 205 453 227 622 9 65 9 180 1 234 -20 126 -30 195 -46 315 -6
47 -13 100 -16 118 -2 17 -6 49 -9 70 -3 20 -7 53 -10 72 -20 154 -27 441 -13
552 19 147 86 308 178 430 68 89 205 217 326 304 94 66 315 204 328 204 4 0
43 23 87 50 44 28 83 50 85 50 3 0 24 13 47 28 95 65 501 304 617 364 332 172
612 254 935 274 55 4 101 8 103 9 5 5 566 -3 587 -8z"/>
<path d="M3387 5794 c-1 -1 -55 -4 -120 -8 -65 -3 -122 -8 -125 -10 -4 -2 -33
-7 -65 -10 -33 -4 -70 -11 -83 -16 -13 -5 -24 -8 -24 -6 0 7 -202 -61 -280
-94 -92 -38 -205 -100 -353 -191 -62 -38 -192 -117 -290 -176 -98 -59 -212
-133 -254 -165 -266 -199 -406 -422 -438 -698 -6 -56 -7 -241 -1 -295 2 -16 6
-61 10 -100 4 -38 9 -81 11 -95 2 -14 7 -45 10 -70 3 -25 10 -79 17 -120 6
-41 11 -93 10 -116 -2 -55 -42 -162 -116 -314 -111 -223 -144 -343 -144 -513
0 -89 5 -129 25 -197 65 -224 246 -460 419 -544 91 -45 167 -60 304 -60 125
-1 203 5 315 24 33 6 78 13 100 16 22 3 46 7 53 9 11 4 64 10 166 19 67 7 120
-16 348 -147 128 -74 283 -159 344 -190 349 -175 755 -304 1047 -333 72 -7
262 -7 322 0 48 6 60 8 130 22 205 40 436 187 566 359 187 250 227 552 131
1000 -47 217 -91 308 -322 660 -229 350 -288 476 -277 599 2 34 29 137 60 231
66 203 79 263 80 369 2 145 -24 254 -90 376 -127 236 -443 529 -698 649 -77
36 -192 77 -244 86 -19 3 -38 8 -41 10 -7 4 -50 12 -110 21 -75 10 -385 24
-393 18z m324 -459 c250 -36 439 -149 651 -390 97 -110 139 -190 142 -271 4
-71 -9 -127 -68 -304 -74 -224 -89 -334 -65 -480 29 -181 115 -355 350 -706
112 -168 133 -202 179 -289 23 -43 49 -107 56 -140 46 -204 58 -286 57 -411
-1 -243 -132 -418 -368 -490 -47 -14 -92 -18 -210 -18 -239 1 -455 53 -781
187 -173 71 -315 145 -612 319 -171 100 -215 120 -305 144 -72 19 -243 26
-337 13 -36 -5 -83 -11 -105 -14 -36 -5 -109 -17 -174 -30 -123 -24 -273 -25
-318 -1 -69 35 -173 194 -190 292 -20 107 2 182 131 444 85 171 125 308 128
430 1 59 -7 152 -17 190 -2 8 -7 39 -10 69 -4 30 -8 62 -10 71 -2 9 -6 53 -10
96 -4 43 -9 82 -12 86 -8 15 -4 235 6 288 28 141 132 267 328 396 61 41 113
74 116 74 3 0 99 58 215 129 376 233 532 299 747 317 39 4 71 7 73 9 10 9 336
1 413 -10z"/>
<path d="M3129 4664 c-144 -21 -230 -57 -461 -191 -118 -70 -155 -96 -209
-148 -134 -130 -171 -270 -135 -515 l13 -85 -33 -66 c-115 -231 -100 -394 50
-557 114 -124 246 -151 505 -102 41 7 51 4 130 -38 303 -160 463 -212 676
-218 190 -5 308 37 420 150 57 57 110 145 121 200 2 11 6 32 9 46 15 70 4 190
-25 299 -24 86 -56 147 -145 276 -102 147 -100 141 -69 232 51 145 40 281 -33
395 -54 87 -188 205 -292 258 -137 69 -326 92 -522 64z m288 -387 c62 -16 193
-122 193 -156 0 -9 -11 -48 -25 -88 -33 -99 -39 -172 -19 -253 22 -85 46 -131
148 -283 84 -126 99 -163 108 -263 6 -73 -44 -109 -148 -107 -106 2 -231 45
-453 156 l-204 102 -101 0 c-94 0 -179 -8 -233 -21 -27 -7 -53 11 -53 36 0 9
20 60 44 111 44 93 67 186 60 241 -2 15 -6 43 -9 61 -14 94 -17 195 -6 216 22
40 294 202 399 237 53 18 83 21 171 19 58 -1 116 -5 128 -8z"/>
</g>
</svg>
